<svg width="1176" height="200" viewBox="0 0 1176 200" fill="currentColor" xmlns="http://www.w3.org/2000/svg">
<g id="stepan-kulik-logo">
<path id="arrow-right" d="M1171.93 93.5519L1121.99 51.9275C1121.15 51.2279 1120.18 50.7006 1119.13 50.3758C1118.09 50.051 1116.99 49.935 1115.9 50.0346C1114.81 50.1341 1113.75 50.4471 1112.78 50.9558C1111.82 51.4645 1110.96 52.1589 1110.26 52.9993C1108.84 54.6967 1108.16 56.8858 1108.36 59.0852C1108.57 61.2845 1109.63 63.314 1111.33 64.727L1153.6 99.9516L1111.33 135.176C1110.47 135.868 1109.75 136.725 1109.22 137.698C1108.69 138.67 1108.36 139.738 1108.25 140.84C1108.14 141.941 1108.25 143.053 1108.57 144.112C1108.9 145.17 1109.43 146.154 1110.14 147.004C1110.85 147.855 1111.72 148.555 1112.7 149.065C1113.68 149.575 1114.76 149.883 1115.86 149.973C1116.96 150.062 1118.07 149.931 1119.12 149.586C1120.18 149.241 1121.15 148.69 1121.99 147.965L1171.93 106.341C1172.87 105.56 1173.63 104.582 1174.14 103.477C1174.66 102.372 1174.93 101.167 1174.93 99.9464C1174.93 98.7262 1174.66 97.5209 1174.14 96.4159C1173.63 95.3109 1172.87 94.3331 1171.93 93.5519Z" fill="currentColor"/>
<g id="kulik">
<path d="M749.116 166.786C746.004 161.999 742.413 156.972 738.344 151.706C734.275 146.439 729.966 141.352 725.418 136.445C720.989 131.538 716.381 126.87 711.594 122.442C706.806 118.013 702.078 114.183 697.41 110.952V166.786H674.789V42.3698H697.41V93.7163C701.36 89.7666 705.489 85.5775 709.798 81.149C714.107 76.6008 718.356 72.0527 722.545 67.5045C726.854 62.8366 730.923 58.3483 734.753 54.0395C738.583 49.7307 742.054 45.8408 745.166 42.3698H772.276C768.326 46.918 764.137 51.6457 759.709 56.553C755.28 61.4602 750.732 66.4273 746.064 71.4542C741.396 76.3615 736.668 81.2687 731.881 86.1759C727.213 91.0832 722.605 95.751 718.057 100.18C723.084 104.01 728.171 108.498 733.317 113.645C738.583 118.671 743.73 124.117 748.757 129.982C753.784 135.727 758.571 141.771 763.12 148.115C767.787 154.339 772.036 160.563 775.866 166.786H749.116Z" fill="currentColor"/>
<path d="M864.518 163.914C860.329 164.991 854.883 166.068 848.181 167.145C841.478 168.342 834.117 168.941 826.098 168.941C818.558 168.941 812.214 167.864 807.067 165.709C802.04 163.555 797.971 160.563 794.859 156.732C791.867 152.902 789.713 148.354 788.396 143.088C787.079 137.702 786.421 131.837 786.421 125.494V72.8905H808.145V122.083C808.145 132.136 809.581 139.318 812.453 143.627C815.446 147.935 820.592 150.09 827.893 150.09C830.526 150.09 833.279 149.97 836.152 149.731C839.144 149.491 841.358 149.192 842.794 148.833V72.8905H864.518V163.914Z" fill="currentColor"/>
<path d="M924.843 168.582C918.379 168.462 912.993 167.744 908.685 166.427C904.496 165.111 901.144 163.256 898.631 160.862C896.117 158.348 894.322 155.296 893.245 151.706C892.287 147.995 891.808 143.806 891.808 139.138V31.0592L913.532 27.4686V135.009C913.532 137.642 913.712 139.856 914.071 141.652C914.549 143.447 915.327 145.003 916.404 146.32C917.482 147.516 918.918 148.474 920.713 149.192C922.628 149.791 925.022 150.269 927.895 150.628L924.843 168.582Z" fill="currentColor"/>
<path d="M967.37 166.786H945.646V72.8905H967.37V166.786ZM982.271 34.4704L953.007 62.8366L942.235 53.1418L968.626 21.7235L982.271 34.4704Z" fill="currentColor"/>
<path d="M1016.81 109.515C1019.56 106.643 1022.49 103.591 1025.6 100.359C1028.72 97.0078 1031.77 93.7163 1034.76 90.4847C1037.75 87.1334 1040.57 83.9617 1043.2 80.9695C1045.95 77.8576 1048.29 75.1646 1050.2 72.8905H1075.87C1069.89 79.5931 1063.55 86.535 1056.84 93.7163C1050.26 100.898 1043.62 107.899 1036.91 114.722C1040.51 117.714 1044.28 121.364 1048.23 125.673C1052.18 129.862 1056.01 134.351 1059.72 139.138C1063.43 143.926 1066.9 148.713 1070.13 153.501C1073.36 158.288 1076.05 162.717 1078.21 166.786H1053.07C1050.92 163.076 1048.4 159.186 1045.53 155.117C1042.78 151.047 1039.79 147.098 1036.56 143.267C1033.32 139.437 1030.03 135.847 1026.68 132.496C1023.33 129.025 1020.04 126.092 1016.81 123.698V166.786H995.084V31.0592L1016.81 27.4686V109.515Z" fill="currentColor"/>
</g>
<g id="stepan">
<path d="M135.302 154.399C153.494 154.399 162.591 148.175 162.591 135.727C162.591 131.897 161.753 128.665 160.077 126.032C158.521 123.279 156.367 120.946 153.614 119.031C150.861 116.996 147.689 115.26 144.099 113.824C140.628 112.388 136.917 110.952 132.968 109.515C128.42 107.959 124.111 106.224 120.041 104.309C115.972 102.274 112.441 99.9402 109.449 97.307C106.457 94.5542 104.063 91.3226 102.268 87.6122C100.592 83.9019 99.7541 79.4135 99.7541 74.1472C99.7541 63.2555 103.464 54.7576 110.885 48.6535C118.306 42.5494 128.539 39.4973 141.585 39.4973C149.126 39.4973 155.948 40.3351 162.052 42.0108C168.276 43.5667 172.824 45.3022 175.697 47.2172L170.131 61.4004C167.618 59.8444 163.847 58.3483 158.821 56.912C153.913 55.3561 148.168 54.5781 141.585 54.5781C138.234 54.5781 135.122 54.9372 132.25 55.6553C129.377 56.3734 126.864 57.4506 124.709 58.8869C122.555 60.3232 120.819 62.1783 119.503 64.4524C118.306 66.6068 117.707 69.1801 117.707 72.1723C117.707 75.5236 118.366 78.3363 119.682 80.6104C120.999 82.8845 122.854 84.9192 125.248 86.7145C127.642 88.3902 130.394 89.9461 133.506 91.3824C136.738 92.8187 140.269 94.2549 144.099 95.6912C149.485 97.8456 154.392 100 158.821 102.154C163.369 104.309 167.259 106.882 170.49 109.874C173.841 112.867 176.415 116.457 178.21 120.646C180.005 124.716 180.903 129.683 180.903 135.548C180.903 146.439 176.894 154.817 168.874 160.682C160.975 166.547 149.784 169.479 135.302 169.479C130.394 169.479 125.846 169.12 121.657 168.402C117.588 167.804 113.937 167.086 110.706 166.248C107.474 165.29 104.661 164.333 102.268 163.375C99.9935 162.298 98.1982 161.4 96.8816 160.682L102.088 146.32C104.841 147.876 109.03 149.611 114.655 151.526C120.281 153.441 127.163 154.399 135.302 154.399ZM116.092 7.89946L123.093 0L140.508 15.7989L157.923 0L164.925 7.89946L140.508 33.5727L116.092 7.89946Z" fill="currentColor"/>
<path d="M216.491 73.4291H251.859V87.4327H216.491V130.521C216.491 135.189 216.85 139.078 217.569 142.19C218.287 145.183 219.364 147.576 220.8 149.372C222.236 151.047 224.032 152.244 226.186 152.962C228.341 153.68 230.854 154.04 233.727 154.04C238.754 154.04 242.763 153.501 245.755 152.424C248.867 151.227 251.022 150.389 252.218 149.91L255.45 163.734C253.774 164.572 250.842 165.589 246.653 166.786C242.464 168.103 237.676 168.761 232.29 168.761C225.947 168.761 220.68 167.983 216.491 166.427C212.422 164.752 209.131 162.298 206.617 159.066C204.104 155.835 202.308 151.885 201.231 147.217C200.274 142.43 199.795 136.924 199.795 130.7V47.3968L216.491 44.5242V73.4291Z" fill="currentColor"/>
<path d="M266.146 120.287C266.146 112.029 267.343 104.847 269.737 98.7433C272.131 92.5194 275.303 87.3728 279.252 83.3034C283.202 79.234 287.75 76.1819 292.897 74.1472C298.043 72.1125 303.31 71.0951 308.696 71.0951C321.263 71.0951 330.898 75.0449 337.601 82.9443C344.303 90.7241 347.654 102.633 347.654 118.671C347.654 119.39 347.654 120.347 347.654 121.544C347.654 122.621 347.595 123.639 347.475 124.596H283.561C284.279 134.291 287.092 141.652 291.999 146.679C296.906 151.706 304.566 154.219 314.979 154.219C320.844 154.219 325.751 153.74 329.701 152.783C333.771 151.706 336.823 150.688 338.857 149.731L341.191 163.734C339.157 164.811 335.566 165.949 330.419 167.145C325.392 168.342 319.647 168.941 313.184 168.941C305.045 168.941 297.984 167.744 291.999 165.35C286.134 162.837 281.287 159.425 277.457 155.117C273.627 150.808 270.754 145.721 268.839 139.856C267.044 133.872 266.146 127.349 266.146 120.287ZM330.24 111.131C330.359 103.591 328.444 97.4267 324.495 92.6391C320.665 87.7319 315.338 85.2783 308.516 85.2783C304.686 85.2783 301.275 86.0562 298.283 87.6122C295.41 89.0485 292.957 90.9635 290.922 93.3573C288.887 95.751 287.271 98.5039 286.075 101.616C284.997 104.728 284.279 107.899 283.92 111.131H330.24ZM283.92 35.9066L290.922 28.0072L308.337 43.8061L325.751 28.0072L332.753 35.9066L308.337 61.5799L283.92 35.9066Z" fill="currentColor"/>
<path d="M436.45 120.287C436.45 109.396 433.757 101.017 428.371 95.1526C422.985 89.2879 415.804 86.3555 406.827 86.3555C401.801 86.3555 397.851 86.535 394.978 86.8941C392.225 87.2531 390.011 87.672 388.336 88.1508V147.038C390.37 148.713 393.303 150.329 397.133 151.885C400.963 153.441 405.152 154.219 409.7 154.219C414.488 154.219 418.557 153.381 421.908 151.706C425.379 149.91 428.192 147.516 430.346 144.524C432.501 141.412 434.057 137.822 435.014 133.752C435.972 129.563 436.45 125.075 436.45 120.287ZM453.865 120.287C453.865 127.349 452.908 133.872 450.993 139.856C449.197 145.841 446.504 150.987 442.914 155.296C439.323 159.605 434.894 162.956 429.628 165.35C424.482 167.744 418.557 168.941 411.854 168.941C406.468 168.941 401.681 168.223 397.492 166.786C393.422 165.35 390.37 163.974 388.336 162.657V200H371.639V76.3016C375.589 75.3441 380.496 74.3267 386.361 73.2495C392.345 72.0527 399.227 71.4542 407.007 71.4542C414.188 71.4542 420.651 72.5913 426.397 74.8653C432.142 77.1394 437.049 80.371 441.118 84.5601C445.188 88.7492 448.3 93.8959 450.454 100C452.728 105.984 453.865 112.747 453.865 120.287Z" fill="currentColor"/>
<path d="M508.958 154.758C512.908 154.758 516.379 154.698 519.371 154.578C522.483 154.339 525.056 153.98 527.091 153.501V125.673C525.894 125.075 523.919 124.596 521.166 124.237C518.533 123.758 515.301 123.519 511.471 123.519C508.958 123.519 506.265 123.698 503.392 124.057C500.64 124.417 498.066 125.194 495.673 126.391C493.398 127.469 491.483 129.025 489.927 131.059C488.372 132.974 487.594 135.548 487.594 138.779C487.594 144.764 489.509 148.953 493.339 151.346C497.169 153.621 502.375 154.758 508.958 154.758ZM507.522 71.0951C514.224 71.0951 519.85 71.9928 524.398 73.7882C529.066 75.4638 532.776 77.9174 535.529 81.149C538.401 84.2609 540.436 88.0311 541.633 92.4596C542.83 96.7684 543.428 101.556 543.428 106.822V165.171C541.992 165.41 539.957 165.769 537.324 166.248C534.811 166.607 531.938 166.966 528.707 167.325C525.475 167.684 521.944 167.983 518.114 168.223C514.404 168.582 510.693 168.761 506.983 168.761C501.717 168.761 496.869 168.223 492.441 167.145C488.012 166.068 484.182 164.393 480.951 162.118C477.719 159.725 475.206 156.613 473.41 152.783C471.615 148.953 470.717 144.345 470.717 138.959C470.717 133.812 471.735 129.384 473.769 125.673C475.924 121.963 478.796 118.971 482.387 116.697C485.978 114.422 490.167 112.747 494.954 111.67C499.742 110.592 504.769 110.054 510.035 110.054C511.711 110.054 513.446 110.174 515.242 110.413C517.037 110.533 518.713 110.772 520.269 111.131C521.944 111.37 523.381 111.61 524.577 111.849C525.774 112.089 526.612 112.268 527.091 112.388V107.72C527.091 104.967 526.792 102.274 526.193 99.6409C525.595 96.8881 524.518 94.4943 522.962 92.4596C521.406 90.3052 519.251 88.6296 516.498 87.4327C513.865 86.1161 510.394 85.4578 506.085 85.4578C500.58 85.4578 495.732 85.8767 491.543 86.7145C487.474 87.4327 484.422 88.2106 482.387 89.0485L480.412 75.2244C482.567 74.2669 486.157 73.3692 491.184 72.5314C496.211 71.5739 501.657 71.0951 507.522 71.0951ZM531.938 38.061L506.624 62.6571L498.186 55.1167L521.166 27.4686L531.938 38.061Z" fill="currentColor"/>
<path d="M571.159 76.1221C574.989 75.1646 580.076 74.1472 586.42 73.07C592.763 71.9928 600.064 71.4542 608.323 71.4542C615.743 71.4542 621.907 72.5314 626.815 74.6858C631.722 76.7205 635.612 79.6529 638.484 83.4829C641.476 87.1933 643.571 91.6816 644.768 96.9479C645.965 102.214 646.563 108.019 646.563 114.363V166.786H629.867V117.953C629.867 112.208 629.448 107.301 628.61 103.232C627.892 99.1622 626.635 95.8707 624.84 93.3573C623.044 90.8438 620.651 89.0485 617.658 87.9713C614.666 86.7744 610.956 86.1759 606.527 86.1759C604.732 86.1759 602.877 86.2358 600.962 86.3555C599.047 86.4752 597.192 86.6547 595.396 86.8941C593.721 87.0138 592.165 87.1933 590.728 87.4327C589.412 87.672 588.454 87.8516 587.856 87.9713V166.786H571.159V76.1221Z" fill="currentColor"/>
</g>
<path id="arrow-left" d="M63.7594 64.727L21.4899 99.9516L63.7594 135.176C64.6236 135.868 65.3411 136.725 65.87 137.698C66.3989 138.67 66.7285 139.738 66.8396 140.84C66.9507 141.941 66.8411 143.053 66.517 144.112C66.193 145.17 65.6612 146.154 64.9526 147.004C64.244 147.855 63.3729 148.555 62.3903 149.065C61.4076 149.575 60.3332 149.883 59.2299 149.973C58.1265 150.062 57.0164 149.931 55.9645 149.586C54.9126 149.241 53.94 148.69 53.1036 147.965L3.15437 106.341C2.21711 105.56 1.46307 104.582 0.945602 103.477C0.428138 102.372 0.159912 101.167 0.159912 99.9464C0.159912 98.7262 0.428138 97.521 0.945602 96.4159C1.46307 95.3109 2.21711 94.3331 3.15437 93.5519L53.1036 51.9275C54.8009 50.5145 56.99 49.8336 59.1894 50.0346C61.3887 50.2356 63.4182 51.3021 64.8312 52.9994C66.2443 54.6967 66.9252 56.8858 66.7242 59.0852C66.5232 61.2845 65.4567 63.314 63.7594 64.727Z" fill="currentColor"/>
</g>
<defs>
</defs>
</svg>
