<svg width="842" height="842" viewBox="0 0 842 842" fill="none" xmlns="http://www.w3.org/2000/svg">
<path d="M114.8 16H727.51C781.8 16 825.81 60.0104 825.81 114.3V727.01C825.81 781.3 781.8 825.31 727.51 825.31H114.8C60.5104 825.31 16.5 781.3 16.5 727.01V114.3C16.5 60.0104 60.5104 16 114.8 16Z" fill="url(#paint0_linear_101_10)" stroke="white" stroke-width="32"/>
<path d="M701.9 627.78L573.14 393L657.87 286.67C662.035 281.532 664.317 275.124 664.34 268.51C664.365 262.397 662.484 256.428 658.959 251.433C655.434 246.438 650.44 242.666 644.672 240.641C638.904 238.616 632.648 238.439 626.775 240.134C620.901 241.829 615.702 245.313 611.9 250.1L451.68 451.23V271.55C451.68 265.371 449.92 259.32 446.606 254.105C443.292 248.89 438.56 244.727 432.965 242.104C427.371 239.481 421.145 238.506 415.016 239.293C408.887 240.081 403.11 242.598 398.36 246.55C403.923 251.51 409.071 256.918 413.75 262.72C419.675 270.048 423.73 278.707 425.566 287.95C427.402 297.193 426.964 306.744 424.29 315.78C421.648 324.908 416.838 333.261 410.27 340.129C403.702 346.996 395.571 352.174 386.57 355.22V425.13C388.34 426.18 389.96 427.27 391.52 428.37C400.048 434.484 408.202 441.103 415.94 448.19C426.32 457.59 434.52 467.45 440.25 477.57C446.145 488.287 450.735 499.671 453.92 511.48C456.017 518.824 457.519 526.325 458.41 533.91L529.31 448.14L643.21 659.76C646.033 665.087 650.277 669.528 655.47 672.59C660.663 675.672 666.591 677.295 672.63 677.29C698 677.25 714.11 650.06 701.9 627.78ZM408.22 670.1C406.81 671.25 405.4 672.39 403.94 673.49C408.901 676.108 414.455 677.399 420.062 677.238C425.67 677.078 431.141 675.47 435.944 672.573C440.747 669.675 444.72 665.585 447.477 660.7C450.234 655.815 451.682 650.3 451.68 644.69V606.69C443.54 631.7 429 652.93 408.22 670.1ZM433.52 553.91C433.52 594.863 419.54 626.897 391.58 650.01C390.32 651.01 389.02 652.1 387.72 653.09C360.333 674.223 325.723 684.78 283.89 684.76C245.077 684.76 211.477 675.263 183.09 656.27C166.586 645.374 152.462 631.246 141.57 614.74C130 597.11 138.12 573.26 157.9 566L159.67 565.37C163.243 564.05 167.021 563.372 170.83 563.37C174.104 563.383 177.359 563.875 180.49 564.83C181.75 565.226 182.986 565.697 184.19 566.24C189.703 568.71 194.466 572.591 198 577.49C205.567 587.987 214.928 597.066 225.65 604.31C243.217 616.203 263.467 622.15 286.4 622.15C310.6 622.15 329.903 616.307 344.31 604.62C358.717 592.933 365.917 576.237 365.91 554.53C366.001 545.728 363.974 537.034 360 529.18C356.519 522.161 351.98 515.719 346.54 510.08C341.54 505.08 333.81 500.01 323.38 494.74C312.95 489.47 304.28 485.61 297.38 482.85C290.48 480.09 280.38 476.54 267.02 471.85C250.32 466.01 237.8 461.47 229.45 458.08C221.1 454.69 210.15 449.26 196.59 441.49C183.03 433.72 172.79 426.1 165.91 418.32C159.03 410.54 152.83 400.52 147.41 388C141.99 375.48 139.27 361.5 139.27 346.05C139.27 313.91 151.79 286.78 176.83 264.66C201.87 242.54 235.887 231.48 278.88 231.48C314.78 231.48 344.31 239.41 367.47 255.27C374.367 259.963 380.767 265.348 386.57 271.34C389.02 273.85 391.32 276.4 393.46 279.06C405.72 294.14 401.46 315.79 386.57 326.23C383.952 328.14 381.045 329.618 377.96 330.61C377.104 330.9 376.232 331.143 375.35 331.34C374.05 331.65 372.74 331.86 371.35 332.07C369.96 332.28 368.69 332.28 367.35 332.28C365.247 332.281 363.15 332.07 361.09 331.65C360.632 331.592 360.177 331.506 359.73 331.39C358.9 331.18 358.12 330.97 357.28 330.71C355.124 330.017 353.044 329.109 351.07 328C348.074 326.245 345.374 324.028 343.07 321.43C337.843 315.466 331.712 310.361 324.9 306.3C311.34 298.16 294.34 294.09 273.9 294.09C253.03 294.09 236.64 298.73 224.75 307.86C212.86 316.99 206.89 330 206.89 346.68C206.89 357.947 211.48 367.963 220.66 376.73C229.84 385.497 239.44 391.967 249.46 396.14C259.46 400.307 274.693 405.94 295.16 413.04C307.68 417.627 316.967 421.07 323.02 423.37C329.07 425.67 337.94 429.58 349.63 434.96C361.32 440.34 370.29 445.29 376.55 449.67C379.63 451.81 382.97 454.36 386.55 457.28C390.13 460.2 394.22 463.7 398.44 467.51C406.787 475.017 413.153 482.633 417.54 490.36C428.085 509.879 433.585 531.724 433.54 553.91H433.52ZM371.39 332.07C370.092 332.261 368.782 332.348 367.47 332.33C365.348 332.342 363.231 332.114 361.16 331.65C363.22 332.07 365.318 332.281 367.42 332.28C368.73 332.28 370.08 332.17 371.39 332.07ZM367.39 332.28C365.288 332.281 363.19 332.07 361.13 331.65C363.201 332.114 365.318 332.342 367.44 332.33C368.752 332.348 370.062 332.261 371.36 332.07C370.08 332.17 368.73 332.28 367.42 332.28H367.39ZM364.63 140.54L319.13 190.54C316.896 192.993 314.173 194.951 311.137 196.29C308.101 197.628 304.818 198.316 301.5 198.31H256.92C253.588 198.314 250.292 197.619 247.245 196.27C244.198 194.921 241.468 192.949 239.23 190.48L194.05 140.48C180.17 125.14 191.05 100.62 211.74 100.62H212C217.62 100.626 223.055 102.624 227.34 106.26L279.51 150.08L331.73 106.2C336.027 102.591 341.459 100.615 347.07 100.62C367.73 100.63 378.59 125.21 364.66 140.54H364.63Z" fill="white"/>
<defs>
<linearGradient id="paint0_linear_101_10" x1="33.98" y1="807.84" x2="808.34" y2="33.48" gradientUnits="userSpaceOnUse">
<stop stop-color="#3A0CA3"/>
<stop offset="1" stop-color="#7209B7"/>
</linearGradient>
</defs>
</svg>
