<svg width="1175" height="200" fill="none" xmlns="http://www.w3.org/2000/svg"><g clip-path="url(#a)" fill="#fff"><path d="M63.6 64.727 21.33 99.952l42.27 35.224a8.324 8.324 0 1 1-10.656 12.789l-49.95-41.624a8.322 8.322 0 0 1-2.208-9.925 8.324 8.324 0 0 1 2.208-2.864l49.95-41.625a8.328 8.328 0 0 1 10.655 12.8ZM135.142 154.399c18.193 0 27.289-6.224 27.289-18.672 0-3.83-.838-7.062-2.514-9.695-1.556-2.753-3.71-5.086-6.463-7.001-2.753-2.035-5.924-3.771-9.515-5.207a275.926 275.926 0 0 0-11.131-4.309c-4.548-1.556-8.857-3.291-12.926-5.206-4.07-2.035-7.601-4.369-10.593-7.002a31.96 31.96 0 0 1-7.181-9.695c-1.676-3.71-2.514-8.198-2.514-13.465 0-10.892 3.711-19.39 11.131-25.494 7.421-6.104 17.654-9.156 30.701-9.156 7.54 0 14.362.838 20.466 2.514 6.224 1.556 10.772 3.291 13.645 5.206L169.971 61.4c-2.513-1.556-6.283-3.052-11.31-4.488-4.908-1.556-10.653-2.334-17.235-2.334-3.352 0-6.464.36-9.336 1.077-2.873.718-5.386 1.796-7.541 3.232a16.578 16.578 0 0 0-5.206 5.565c-1.197 2.155-1.795 4.728-1.795 7.72 0 3.352.658 6.164 1.974 8.438 1.317 2.275 3.172 4.31 5.566 6.105 2.394 1.675 5.147 3.231 8.259 4.667a192.89 192.89 0 0 0 10.592 4.31c5.386 2.154 10.293 4.308 14.722 6.462 4.548 2.155 8.438 4.728 11.669 7.72 3.352 2.993 5.925 6.583 7.72 10.772 1.796 4.07 2.693 9.037 2.693 14.902 0 10.891-4.009 19.269-12.028 25.134-7.9 5.865-19.091 8.797-33.573 8.797-4.907 0-9.456-.359-13.645-1.077-4.069-.598-7.72-1.316-10.951-2.154-3.232-.958-6.044-1.915-8.438-2.873-2.274-1.077-4.07-1.975-5.386-2.693l5.206-14.362c2.753 1.556 6.942 3.291 12.568 5.206 5.625 1.915 12.507 2.873 20.646 2.873Zm-19.21-146.5L122.934 0l17.414 15.799L157.763 0l7.002 7.9-24.417 25.673-24.416-25.674ZM216.332 73.43H251.7v14.003h-35.368v43.088c0 4.668.359 8.557 1.077 11.669.718 2.993 1.795 5.386 3.231 7.182 1.437 1.675 3.232 2.872 5.386 3.59 2.155.718 4.668 1.077 7.541 1.077 5.027 0 9.036-.538 12.028-1.615a610.842 610.842 0 0 0 6.464-2.514l3.231 13.824c-1.675.838-4.608 1.855-8.797 3.052-4.189 1.317-8.977 1.975-14.363 1.975-6.343 0-11.609-.778-15.798-2.334-4.07-1.675-7.361-4.129-9.875-7.361-2.513-3.231-4.309-7.181-5.386-11.849-.957-4.787-1.436-10.293-1.436-16.517V47.397l16.697-2.873V73.43ZM265.986 120.287c0-8.258 1.197-15.44 3.591-21.544 2.394-6.224 5.566-11.37 9.515-15.44 3.95-4.069 8.498-7.121 13.645-9.156s10.413-3.052 15.799-3.052c12.567 0 22.202 3.95 28.905 11.85 6.702 7.78 10.054 19.688 10.054 35.726v2.873c0 1.077-.06 2.095-.18 3.052h-63.914c.718 9.695 3.531 17.056 8.438 22.083 4.908 5.027 12.568 7.54 22.981 7.54 5.864 0 10.772-.479 14.721-1.436 4.07-1.077 7.122-2.095 9.156-3.052l2.334 14.003c-2.034 1.077-5.625 2.215-10.772 3.411-5.027 1.197-10.772 1.796-17.235 1.796-8.139 0-15.2-1.197-21.185-3.591-5.864-2.513-10.712-5.925-14.542-10.233-3.83-4.309-6.702-9.396-8.618-15.261-1.795-5.984-2.693-12.507-2.693-19.569Zm64.094-9.156c.12-7.54-1.795-13.704-5.745-18.492-3.83-4.907-9.156-7.36-15.979-7.36-3.83 0-7.241.777-10.233 2.333-2.873 1.437-5.326 3.352-7.361 5.745-2.035 2.394-3.65 5.147-4.847 8.259a43.731 43.731 0 0 0-2.155 9.515h46.32Zm-46.32-75.224 7.002-7.9 17.415 15.8 17.415-15.8 7.001 7.9-24.416 25.673-24.417-25.673ZM436.291 120.287c0-10.891-2.693-19.27-8.079-25.134-5.386-5.865-12.568-8.797-21.544-8.797-5.027 0-8.977.179-11.85.538-2.752.36-4.967.778-6.642 1.257v58.887c2.034 1.675 4.967 3.291 8.797 4.847 3.83 1.556 8.019 2.334 12.567 2.334 4.788 0 8.857-.838 12.208-2.513 3.471-1.796 6.284-4.19 8.438-7.182 2.155-3.112 3.711-6.702 4.668-10.772.958-4.189 1.437-8.677 1.437-13.465Zm17.414 0c0 7.062-.957 13.585-2.872 19.569-1.796 5.985-4.489 11.131-8.079 15.44-3.591 4.309-8.019 7.66-13.286 10.054-5.146 2.394-11.071 3.591-17.773 3.591-5.386 0-10.174-.718-14.363-2.155-4.07-1.436-7.122-2.812-9.156-4.129V200h-16.697V76.302c3.95-.958 8.857-1.975 14.722-3.053 5.984-1.196 12.866-1.795 20.646-1.795 7.181 0 13.645 1.137 19.39 3.411 5.745 2.274 10.652 5.506 14.721 9.695 4.07 4.19 7.182 9.336 9.336 15.44 2.274 5.984 3.411 12.747 3.411 20.287ZM508.798 154.758c3.95 0 7.421-.06 10.413-.18 3.112-.239 5.685-.598 7.72-1.077v-27.828c-1.197-.598-3.172-1.077-5.925-1.436-2.633-.479-5.864-.718-9.694-.718-2.514 0-5.207.179-8.079.538-2.753.36-5.327 1.137-7.72 2.334-2.274 1.078-4.189 2.634-5.745 4.668-1.556 1.915-2.334 4.489-2.334 7.72 0 5.985 1.915 10.174 5.745 12.567 3.83 2.275 9.036 3.412 15.619 3.412Zm-1.436-83.663c6.702 0 12.328.898 16.876 2.693 4.668 1.676 8.378 4.13 11.131 7.361 2.873 3.112 4.907 6.882 6.104 11.31 1.197 4.31 1.796 9.097 1.796 14.363v58.349a441.31 441.31 0 0 0-6.105 1.077c-2.513.359-5.386.718-8.617 1.077a222.45 222.45 0 0 1-10.593.898c-3.71.359-7.42.538-11.131.538-5.266 0-10.113-.538-14.542-1.616-4.428-1.077-8.258-2.752-11.49-5.027-3.232-2.393-5.745-5.505-7.54-9.335-1.796-3.83-2.693-8.438-2.693-13.824 0-5.147 1.017-9.575 3.052-13.286 2.154-3.71 5.027-6.702 8.617-8.976 3.591-2.275 7.78-3.95 12.568-5.027 4.787-1.078 9.814-1.616 15.08-1.616 1.676 0 3.411.12 5.207.359 1.795.12 3.471.359 5.027.718a80.45 80.45 0 0 1 4.309.718c1.196.24 2.034.419 2.513.539v-4.668c0-2.753-.299-5.446-.898-8.08-.598-2.752-1.675-5.146-3.231-7.18-1.556-2.155-3.711-3.83-6.463-5.027-2.634-1.317-6.105-1.975-10.413-1.975-5.506 0-10.353.419-14.543 1.257-4.069.718-7.121 1.496-9.156 2.334l-1.975-13.825c2.155-.957 5.745-1.855 10.772-2.693 5.027-.957 10.473-1.436 16.338-1.436Zm24.416-33.034-25.314 24.596-8.438-7.54 22.98-27.648 10.772 10.592ZM570.999 76.122c3.83-.957 8.917-1.975 15.261-3.052 6.343-1.077 13.644-1.616 21.903-1.616 7.42 0 13.584 1.077 18.492 3.232 4.907 2.034 8.797 4.967 11.669 8.797 2.993 3.71 5.087 8.199 6.284 13.465s1.795 11.071 1.795 17.415v52.423h-16.696v-48.833c0-5.745-.419-10.652-1.257-14.721-.718-4.07-1.975-7.361-3.77-9.875-1.796-2.513-4.189-4.308-7.182-5.386-2.992-1.197-6.702-1.795-11.131-1.795-1.795 0-3.65.06-5.565.18-1.915.12-3.77.299-5.566.538-1.675.12-3.231.3-4.667.539-1.317.239-2.275.419-2.873.538v78.815h-16.697V76.122ZM748.956 166.786c-3.112-4.787-6.703-9.814-10.772-15.08a222.997 222.997 0 0 0-12.926-15.261 218.382 218.382 0 0 0-13.824-14.003c-4.788-4.429-9.516-8.259-14.183-11.49v55.834h-22.622V42.37h22.622v51.346a1301.19 1301.19 0 0 0 12.387-12.567c4.309-4.548 8.558-9.096 12.747-13.645a968.234 968.234 0 0 0 12.208-13.465c3.83-4.308 7.301-8.198 10.413-11.67h27.11c-3.95 4.549-8.139 9.277-12.567 14.184a1425.877 1425.877 0 0 1-13.645 14.901 1624.087 1624.087 0 0 1-14.183 14.722 514.94 514.94 0 0 1-13.824 14.004c5.027 3.83 10.114 8.318 15.26 13.465 5.266 5.026 10.413 10.472 15.44 16.337a239.032 239.032 0 0 1 14.363 18.133c4.668 6.224 8.916 12.448 12.746 18.671h-26.75ZM864.358 163.914c-4.189 1.077-9.635 2.154-16.337 3.231-6.703 1.197-14.064 1.796-22.083 1.796-7.54 0-13.884-1.077-19.031-3.232-5.027-2.154-9.096-5.146-12.208-8.977-2.992-3.83-5.146-8.378-6.463-13.644-1.317-5.386-1.975-11.251-1.975-17.594V72.891h21.724v49.192c0 10.053 1.436 17.235 4.308 21.544 2.993 4.308 8.139 6.463 15.44 6.463 2.633 0 5.386-.12 8.259-.359 2.992-.24 5.206-.539 6.643-.898V72.891h21.723v91.023ZM924.683 168.582c-6.464-.12-11.85-.838-16.158-2.155-4.189-1.316-7.541-3.171-10.054-5.565-2.514-2.514-4.309-5.566-5.386-9.156-.958-3.711-1.436-7.9-1.436-12.568V31.059l21.723-3.59v107.54c0 2.633.18 4.847.539 6.643.478 1.795 1.256 3.351 2.334 4.668 1.077 1.196 2.513 2.154 4.308 2.872 1.915.599 4.309 1.077 7.182 1.436l-3.052 17.954ZM967.21 166.786h-21.724V72.891h21.724v93.895ZM982.111 34.47l-29.264 28.367-10.772-9.695 26.391-31.419 13.645 12.747ZM1016.65 109.515c2.75-2.872 5.68-5.924 8.79-9.156 3.12-3.351 6.17-6.643 9.16-9.874 2.99-3.352 5.81-6.523 8.44-9.516 2.75-3.111 5.09-5.804 7-8.078h25.67a1227.667 1227.667 0 0 1-19.03 20.825 819.171 819.171 0 0 1-19.93 21.006c3.6 2.992 7.37 6.642 11.32 10.951 3.95 4.189 7.78 8.678 11.49 13.465a269.91 269.91 0 0 1 10.41 14.363c3.23 4.787 5.92 9.216 8.08 13.285h-25.14c-2.15-3.71-4.67-7.6-7.54-11.669-2.75-4.07-5.74-8.019-8.97-11.849a175.66 175.66 0 0 0-9.88-10.772c-3.35-3.471-6.64-6.404-9.87-8.798v43.088h-21.726V31.059l21.726-3.59v82.046ZM1171.77 93.552l-49.94-41.625a8.296 8.296 0 0 0-2.86-1.551 8.352 8.352 0 0 0-6.35.58 8.405 8.405 0 0 0-2.52 2.043 8.307 8.307 0 0 0-1.9 6.086 8.359 8.359 0 0 0 2.97 5.642l42.27 35.225-42.27 35.224a8.397 8.397 0 0 0-2.11 2.522 8.28 8.28 0 0 0-.97 3.142 8.42 8.42 0 0 0 .32 3.272 8.36 8.36 0 0 0 4.13 4.953 8.305 8.305 0 0 0 6.42.521 8.33 8.33 0 0 0 2.87-1.621l49.94-41.624a8.204 8.204 0 0 0 2.21-2.864 8.29 8.29 0 0 0 0-7.061 8.205 8.205 0 0 0-2.21-2.864Z"/></g><defs><clipPath id="a"><path fill="#fff" d="M0 0h1175v200H0z"/></clipPath></defs></svg>